<svg width="73" height="72" viewBox="0 0 73 72" fill="none" xmlns="http://www.w3.org/2000/svg">
<path fill-rule="evenodd" clip-rule="evenodd" d="M20.0542 59.7046C20.2096 55.1003 23.7821 57.4025 26.4227 57.4025C28.5972 57.4025 30.3058 56.0212 28.4419 54.9469C26.578 54.0261 20.9862 53.8726 19.2776 54.1795C17.4137 54.4865 17.569 55.8678 17.569 56.4817C17.569 62.4672 21.6075 69.6805 14.3071 64.1554C11.3559 62.0067 10.1133 58.9372 10.1133 56.4817C10.1133 52.6448 13.5305 49.2683 16.7923 46.1988C20.6755 42.5155 21.1415 42.6689 25.0247 46.1988C32.3251 52.7983 33.257 47.1197 32.3251 46.3523C31.5484 45.5849 29.9952 45.8919 28.4419 45.1245C21.4522 41.9015 22.2288 35.916 15.2391 43.2828C11.9772 46.8127 8.24934 51.2635 7.62803 54.026C7.16205 56.4816 7.00672 58.4767 3.74485 52.1843C2.96821 50.4961 2.19158 48.6544 1.57027 46.8127C0.172326 41.5946 2.96822 41.7481 8.56001 43.8967C11.5112 44.3572 14.9284 38.5251 6.54072 39.4459C3.12352 39.9064 0.0169989 39.5994 0.0169989 36.9904C-0.138328 35.4556 0.793607 35.4557 1.8809 35.7626C4.52146 36.0696 10.7346 36.53 14.6178 35.4556C16.4817 34.9952 17.8796 34.0743 18.3456 31.0048C18.5009 27.3215 16.171 27.3215 15.5497 29.3167C14.6178 31.4653 16.1711 32.3861 12.5985 33.1535C8.09403 34.3813 1.10428 33.7674 1.41494 31.1584C2.03625 27.0146 11.9772 32.0791 11.9772 27.6284C10.8899 22.7172 -1.38094 32.3862 2.50225 22.7173C4.05552 18.7269 6.23008 15.0435 9.18131 11.9741C12.4432 8.59762 13.2198 9.51845 12.4432 13.2018C11.8219 15.9644 11.8219 18.4199 12.7538 19.9547C16.4817 26.2471 22.2288 20.8755 18.5009 19.9547C15.2391 18.7269 13.2198 17.6526 14.1518 13.3553C16.1711 5.52808 17.103 4.30028 24.5587 1.84469C25.9567 1.38427 25.4907 1.84471 25.8014 3.6864C26.578 6.75589 27.8206 11.8205 28.2866 13.6622C28.7525 15.9644 28.9079 17.3456 28.2866 18.2665C27.8206 19.1873 26.4226 19.9547 24.4034 20.722C23.7821 20.8755 23.3161 20.8755 22.8501 21.029C21.2968 21.029 20.8309 21.1825 20.9862 23.4846C20.9862 26.5541 20.3649 32.2327 22.5395 34.2279C23.6268 35.1487 27.51 35.916 31.2378 36.3764C39.4702 37.2973 38.3828 35.3022 36.0529 42.362C35.5869 43.8967 35.121 45.4315 34.655 46.9662C33.8784 49.8822 33.1017 52.6448 32.4804 55.4073C31.5485 59.8581 31.0824 62.7741 30.6165 66.304C30.1505 69.9874 29.9952 71.5221 26.7333 70.6012C22.6948 69.6804 20.0542 64.1553 20.0542 59.7046ZM47.0812 66.1505C50.6537 62.9276 50.9644 58.9372 54.0709 62.9275C55.6242 64.7692 57.6435 65.5366 52.9837 68.1457C49.1005 70.2943 41.9554 71.6756 36.3636 71.9825C33.8784 72.136 32.1698 71.3686 33.1017 65.997C33.5677 62.9275 34.189 59.2442 34.8103 55.8677C35.4316 53.2587 36.0529 50.4961 36.8296 47.7336C39.6255 38.3717 41.9554 37.1439 48.3238 35.7626C55.6242 34.2279 62.6139 29.9306 67.895 25.0194C69.9143 23.1777 70.5356 23.4846 72.2442 29.3167C74.2634 36.0695 71.9336 46.6593 68.8271 52.6448C66.4972 56.9421 62.7693 58.7837 58.1094 54.7934C56.8668 53.7191 55.7795 51.8774 54.3816 50.1891C52.5177 48.0405 51.8964 47.5801 48.3238 52.6448C46.7706 54.7934 45.5279 54.7934 42.266 55.7143C35.7423 57.249 39.6255 62.0067 43.3533 59.3976C46.4599 57.249 48.6345 56.0212 50.4984 53.4122C53.139 49.7288 53.7603 56.942 60.5947 59.7046C63.0799 60.7789 61.3713 62.0067 61.0606 62.4671C58.8861 64.4623 56.4008 62.4671 53.4496 58.3233C50.3431 54.3329 48.6345 65.2297 40.5575 64.6158C36.053 64.4623 38.5382 73.6708 47.0812 66.1505ZM41.1788 5.98852C41.1788 7.06284 41.3341 10.2858 41.0234 13.0483C40.7128 15.8108 40.5575 19.4943 42.1107 19.4943C43.9747 19.4943 43.664 15.6574 43.664 13.0483C43.664 10.1323 43.3533 6.44898 43.5087 5.06771C43.5087 -0.764321 47.5472 0.156451 47.7025 5.37458C47.7025 6.29543 47.2365 9.36497 47.3919 11.6671C47.8578 16.4248 50.9644 13.3553 51.275 11.0532C51.741 7.83019 49.1005 3.99339 50.6537 3.53296C52.5177 2.91907 56.2455 5.98848 57.6435 6.90933C61.5267 9.36492 60.5947 10.7462 56.4008 12.8949C48.3238 17.1922 43.664 24.0985 39.9361 32.0792C38.6935 34.9952 33.1017 34.5347 28.9079 33.7674C24.8694 33 24.248 33 23.6267 29.3167C23.1608 26.7076 23.0054 23.3311 25.3353 22.8707C27.8206 21.9499 29.5292 20.8755 30.3058 19.4943C32.0144 16.5782 30.1505 11.3602 29.3739 8.1372C29.2185 7.06288 29.0632 6.14199 28.9079 5.22115C27.8206 -1.53173 34.3443 1.07732 34.655 7.2163C34.9656 10.1323 34.9657 12.5879 34.9657 15.197C34.8103 16.8852 32.1697 28.2423 36.0529 27.6284C38.8488 27.6284 37.1402 18.5734 37.2956 16.7317C37.2956 13.3553 37.4509 9.97889 37.4509 6.60245C37.4509 -1.37822 41.1788 -2.75953 41.1788 5.98852ZM65.7205 22.1033C60.4394 24.252 58.2648 23.9451 58.2648 20.4152C58.4201 18.8804 55.6242 17.9595 55.7795 20.8756C55.7795 22.2568 56.2455 23.3311 56.7115 24.0985C59.3521 27.9354 68.6717 22.1033 61.5267 27.6284C57.7988 30.3909 53.139 31.9257 48.6345 33C44.4406 33.9208 40.4021 36.5299 42.5767 32.0792C46.1492 24.5589 51.275 17.4991 59.352 14.4296C67.895 11.0532 69.293 20.7221 65.7205 22.1033ZM65.8758 43.1294C64.4779 43.1294 63.2353 42.5155 62.3033 41.5946C60.4394 39.7529 60.4394 36.53 62.3033 34.6883C69.293 27.9354 75.3508 43.1294 65.8758 43.1294ZM43.8193 47.2732C50.0324 47.2732 49.1005 38.8321 51.4304 38.5251C55.7795 38.0647 53.6049 46.3523 59.6627 46.8127C60.284 46.8127 60.75 47.4267 60.75 48.0406C60.75 48.6545 60.1287 49.2683 59.5074 49.1148C55.6242 48.8079 53.9156 47.4266 52.673 44.8175C52.0517 43.4363 50.9644 43.7433 50.3431 44.6641C49.1004 46.3523 48.1685 48.6544 46.1492 49.8822C41.4894 52.6447 39.7808 46.9662 43.8193 47.2732ZM67.7398 36.3764C65.8758 33.7674 61.6819 37.6043 64.0119 40.0599C66.4971 42.362 69.759 39.2925 67.7398 36.3764Z" fill="url(#paint0_linear_1_1421)"/>
<defs>
<linearGradient id="paint0_linear_1_1421" x1="36.5" y1="0" x2="36.5" y2="72" gradientUnits="userSpaceOnUse">
<stop stop-color="#CCA460"/>
<stop offset="1" stop-color="#F1D385"/>
</linearGradient>
</defs>
</svg>
