<svg width="325" height="321" viewBox="0 0 325 321" fill="none" xmlns="http://www.w3.org/2000/svg">
<path opacity="0.12" fill-rule="evenodd" clip-rule="evenodd" d="M89.2825 266.183C89.974 245.656 105.879 255.919 117.635 255.919C127.316 255.919 134.923 249.761 126.625 244.972C118.327 240.866 93.4317 240.182 85.8249 241.55C77.5266 242.919 78.218 249.077 78.218 251.814C78.218 278.499 96.1977 310.659 63.696 286.026C50.557 276.447 45.0249 262.762 45.0249 251.814C45.0249 234.708 60.2384 219.655 74.7604 205.97C92.0486 189.548 94.1233 190.232 111.411 205.97C143.913 235.392 148.062 210.075 143.913 206.654C140.455 203.233 133.54 204.601 126.625 201.18C95.5062 186.811 98.9638 160.126 67.8452 192.969C53.3231 208.707 36.7265 228.55 33.9604 240.866C31.8858 251.814 31.1943 260.709 16.6723 232.655C13.2146 225.128 9.75704 216.917 6.99094 208.707C0.767206 185.442 13.2147 186.127 38.1096 195.706C51.2486 197.759 66.4621 171.758 29.1196 175.863C13.9061 177.916 0.0756801 176.548 0.0756801 164.915C-0.615846 158.073 3.53318 158.073 8.37387 159.442C20.1298 160.81 47.7909 162.863 65.0791 158.073C73.3774 156.02 79.6011 151.915 81.6757 138.23C82.3672 121.808 71.9944 121.808 69.2283 130.703C65.0791 140.283 71.9944 144.388 56.0893 147.809C36.0351 153.283 4.91632 150.546 6.29937 138.914C9.06548 120.44 53.3231 143.02 53.3231 123.177C48.4824 101.281 -6.14801 144.388 11.1401 101.281C18.0554 83.4909 27.7367 67.0692 40.8757 53.3844C55.3977 38.3311 58.8554 42.4364 55.3978 58.8582C52.6317 71.1745 52.6315 82.1221 56.7807 88.9645C73.3773 117.018 98.9639 93.07 82.3672 88.9645C67.8452 83.4906 58.8554 78.701 63.0046 59.5423C71.9944 24.646 76.1435 19.1721 109.337 8.22424C115.56 6.17152 113.486 8.22432 114.869 16.4352C118.327 30.12 123.859 52.7 125.933 60.9108C128.008 71.1744 128.699 77.3326 125.933 81.438C123.859 85.5435 117.635 88.9645 108.645 92.3857C105.879 93.07 103.804 93.07 101.73 93.7543C94.8146 93.7543 92.7402 94.4388 93.4317 104.702C93.4317 118.387 90.6656 143.704 100.347 152.599C105.188 156.705 122.476 160.126 139.072 162.178C175.723 166.284 170.882 157.389 160.51 188.864C158.435 195.706 156.36 202.549 154.286 209.391C150.828 222.392 147.371 234.708 144.605 247.024C140.455 266.867 138.381 279.868 136.306 295.605C134.232 312.027 133.54 318.869 119.018 314.764C101.038 310.658 89.2825 286.026 89.2825 266.183ZM209.608 294.921C225.513 280.552 226.896 262.762 240.727 280.552C247.642 288.763 256.632 292.184 235.886 303.816C218.598 313.396 186.788 319.554 161.893 320.922C150.828 321.606 143.221 318.185 147.371 294.237C149.445 280.552 152.211 264.13 154.977 249.077C157.744 237.445 160.51 225.129 163.967 212.812C176.415 171.074 186.788 165.6 215.14 159.442C247.642 152.599 278.761 133.44 302.272 111.545C311.262 103.334 314.028 104.702 321.635 130.703C330.625 160.81 320.252 208.023 306.422 234.708C296.049 253.867 279.452 262.077 258.706 244.287C253.174 239.497 248.334 231.287 242.11 223.76C233.811 214.181 231.045 212.128 215.14 234.708C208.225 244.287 202.693 244.287 188.171 248.393C159.127 255.235 176.415 276.446 193.011 264.814C206.842 255.235 216.523 249.761 224.822 238.129C236.578 221.707 239.344 253.867 269.771 266.183C280.835 270.973 273.228 276.446 271.845 278.499C262.164 287.394 251.1 278.499 237.961 260.025C224.13 242.234 216.523 290.816 180.564 288.079C160.51 287.394 171.574 328.449 209.608 294.921ZM183.33 26.6988C183.33 31.4885 184.022 45.8574 182.639 58.1737C181.255 70.49 180.564 86.9119 187.479 86.9119C195.778 86.9119 194.395 69.8058 194.395 58.1737C194.395 45.1731 193.011 28.7517 193.703 22.5935C193.703 -3.4076 211.683 0.697511 212.374 23.9617C212.374 28.0671 210.3 41.7522 210.991 52.0158C213.066 73.2272 226.896 59.5423 228.279 49.2787C230.354 34.9096 218.598 17.8039 225.513 15.7511C233.812 13.0142 250.408 26.6986 256.632 30.8041C273.92 41.7519 269.771 47.9103 251.1 57.4896C215.14 76.6484 194.394 107.439 177.798 143.02C172.266 156.02 147.371 153.967 128.7 150.546C110.72 147.125 107.954 147.125 105.188 130.703C103.113 119.071 102.421 104.018 112.794 101.965C123.859 97.8598 131.466 93.07 134.923 86.9119C142.53 73.9113 134.232 50.6474 130.774 36.2783C130.083 31.4887 129.391 27.3831 128.7 23.2776C123.859 -6.82897 152.903 4.80304 154.286 32.1726C155.669 45.1732 155.669 56.1212 155.669 67.7532C154.978 75.2799 143.221 125.914 160.51 123.177C172.957 123.177 165.35 82.8065 166.042 74.5956C166.042 59.5424 166.734 44.4892 166.734 29.4359C166.734 -6.14456 183.33 -12.3029 183.33 26.6988ZM292.591 98.5441C269.079 108.123 259.398 106.755 259.398 91.0176C260.089 84.1752 247.642 80.0696 248.333 93.0702C248.333 99.2284 250.408 104.018 252.483 107.439C264.239 124.545 305.73 98.5439 273.92 123.177C257.323 135.493 236.578 142.335 216.523 147.125C197.852 151.23 179.872 162.863 189.554 143.02C205.459 109.492 228.279 78.0168 264.239 64.332C302.272 49.2787 308.496 92.3859 292.591 98.5441ZM293.283 192.285C287.059 192.285 281.527 189.548 277.378 185.443C269.079 177.232 269.079 162.863 277.378 154.652C308.496 124.545 335.466 192.285 293.283 192.285ZM195.086 210.76C222.747 210.76 218.598 173.126 228.971 171.758C248.334 169.705 238.652 206.654 265.622 208.707C268.388 208.707 270.462 211.444 270.462 214.181C270.462 216.918 267.696 219.654 264.93 218.97C247.642 217.602 240.035 211.444 234.503 199.812C231.737 193.653 226.896 195.022 224.13 199.127C218.598 206.654 214.449 216.917 205.459 222.391C184.713 234.708 177.106 209.391 195.086 210.76ZM301.581 162.178C293.283 150.546 274.611 167.652 284.984 178.6C296.049 188.864 310.571 175.179 301.581 162.178Z" fill="url(#paint0_linear_1_593)"/>
<defs>
<linearGradient id="paint0_linear_1_593" x1="162.5" y1="0" x2="162.5" y2="321" gradientUnits="userSpaceOnUse">
<stop stop-color="#CCA460"/>
<stop offset="1" stop-color="#F1D385"/>
</linearGradient>
</defs>
</svg>
